#!OML:ASF F:\VICON\USERDATA\INSTALL\rory3\rory3.ASF
:FULLY-SPECIFIED
:DEGREES
1039
root -1.26943 12.7742 -6.89759 13.7029 -0.777233 5.2397
lowerback 23.306 -0.585032 -2.1757
upperback 6.83251 -1.056 2.48132
thorax -5.38493 -0.517669 4.22767
lowerneck -17.6588 -5.553 -7.81379
upperneck 4.3293 -6.10116 4.36884
head 4.47788 -2.89309 2.05463
rclavicle 1.43125e-014 -2.38542e-015
rhumerus -0.627298 5.11411 -75.5847
rradius 130.335
rwrist -2.00162
rhand -23.006 25.595
rfingers 7.12502
rthumb 3.43729 -4.35708
lclavicle 1.43125e-014 -2.38542e-015
lhumerus 6.48813 12.4001 82.5075
lradius 128.283
lwrist 15.9104
lhand -12.6875 7.25801
lfingers 7.12502
lthumb 13.3944 36.8074
rfemur -52.2071 -21.7206 -13.4703
rtibia 91.9354
rfoot -28.1421 20.7897
rtoes -35.3715
lfemur -55.0517 12.3939 7.78092
ltibia 79.5962
lfoot -25.2375 -14.38
ltoes -45.2531
1040
root -1.36145 12.857 -6.87725 13.6093 -1.56939 5.68037
lowerback 23.0691 -0.572268 -1.89968
upperback 6.85904 -0.970488 2.61625
thorax -5.24678 -0.481861 4.18541
lowerneck -18.2367 -5.43686 -7.51193
upperneck 4.44484 -5.93358 3.9922
head 4.57092 -2.82286 1.8938
rclavicle -2.14687e-014 -1.59028e-014
rhumerus -0.620125 6.09131 -76.6454
rradius 129.494
rwrist -1.04084
rhand -22.2357 26.0179
rfingers 7.12502
rthumb 4.1812 -3.92084
lclavicle -2.14687e-014 -1.59028e-014
lhumerus 4.5236 12.8165 83.2508
lradius 128.465
lwrist 15.6196
lhand -12.974 7.0295
lfingers 7.12502
lthumb 13.1182 36.5969
rfemur -52.5448 -21.4687 -13.217
rtibia 91.7647
rfoot -28.2515 20.4558
rtoes -35.0531
lfemur -53.8364 12.2763 7.65787
ltibia 78.4703
lfoot -24.3614 -14.2111
ltoes -45.5614
1041
root -1.46055 12.9541 -6.85702 13.3942 -2.34862 6.12657
lowerback 22.9731 -0.546028 -1.71127
upperback 6.84658 -0.886863 2.77586
thorax -5.21951 -0.44399 4.22644
lowerneck -18.6869 -5.32946 -7.29332
upperneck 4.58522 -5.76683 3.57659
head 4.65438 -2.76001 1.73595
rclavicle -1.59028e-015 8.74653e-015
rhumerus -0.786351 7.12915 -77.7021
rradius 128.784
rwrist 0.00553741
rhand -21.4974 26.0915
rfingers 7.12502
rthumb 4.89412 -3.83195
lclavicle -1.59028e-015 8.74653e-015
lhumerus 2.65743 13.2787 83.9112
lradius 128.481
lwrist 15.1091
lhand -12.8805 6.86032
lfingers 7.12502
lthumb 13.2084 36.4219
rfemur -52.7071 -21.0572 -12.9846
rtibia 91.4675
rfoot -28.3534 20.0046
rtoes -34.9085
lfemur -52.451 12.0567 7.57234
ltibia 77.1914
lfoot -23.3484 -14.078
ltoes -45.6959
1042
root -1.56181 13.0605 -6.83315 13.1981 -3.16379 6.65037
lowerback 22.7839 -0.479599 -1.61673
upperback 6.80042 -0.77528 2.89118
thorax -5.18305 -0.39191 4.26392
lowerneck -19.1871 -5.18752 -7.0315
upperneck 4.90619 -5.55774 3.11141
head 4.79896 -2.68063 1.55735
rclavicle 6.36111e-015 -1.43125e-014
rhumerus -1.14793 8.19299 -78.7892
rradius 128.102
rwrist 1.17911
rhand -21.2443 26.1921
rfingers 7.12502
rthumb 5.13843 -3.72564
lclavicle 6.36111e-015 -1.43125e-014
lhumerus 0.909321 13.7537 84.5548
lradius 128.462
lwrist 14.6279
lhand -12.4061 6.58762
lfingers 7.12502
lthumb 13.6656 36.119
rfemur -52.8158 -20.5511 -12.8655
rtibia 90.9917
rfoot -28.3046 19.6115
rtoes -34.5309
lfemur -51.0177 11.7553 7.39583
ltibia 75.7774
lfoot -22.1387 -14.0614
ltoes -45.8347
1043
root -1.65822 13.1902 -6.79124 12.832 -4.08941 7.29767
lowerback 22.615 -0.382111 -1.54741
upperback 6.75418 -0.637171 2.90281
thorax -5.16044 -0.326167 4.19661
lowerneck -19.5652 -5.03533 -6.75918
upperneck 5.28505 -5.34511 2.63021
head 4.94455 -2.60346 1.37418
rclavicle -1.82882e-014 -2.38542e-014
rhumerus -1.77061 9.16891 -79.8689
rradius 127.488
rwrist 2.1533
rhand -21.136 26.431
rfingers 7.12502
rthumb 5.24299 -3.48418
lclavicle -1.82882e-014 -2.38542e-014
lhumerus -0.959562 14.1201 85.0972
lradius 128.549
lwrist 14.1912
lhand -12.1701 6.49344
lfingers 7.12502
lthumb 13.893 36.0094
rfemur -52.5187 -19.8398 -13.031
rtibia 90.253
rfoot -28.0053 19.7945
rtoes -33.0622
lfemur -49.201 11.28 7.04422
ltibia 74.2026
lfoot -20.7405 -14.2033
ltoes -45.348
1044
root -1.75925 13.3312 -6.75194 12.5718 -4.78067 7.83327
lowerback 22.4271 -0.379088 -1.42039
upperback 6.59278 -0.598093 3.01549
thorax -5.24411 -0.305119 4.23431
lowerneck -19.6836 -4.86569 -6.70152
upperneck 5.511 -5.08037 2.21551
head 5.00933 -2.50316 1.25716
rclavicle 1.27222e-014 3.02153e-014
rhumerus -2.5268 10.1962 -80.8576
rradius 126.988
rwrist 2.65798
rhand -21.1589 26.6991
rfingers 7.12502
rthumb 5.22096 -3.21661
lclavicle 1.27222e-014 3.02153e-014
lhumerus -3.06303 14.468 85.5062
lradius 128.712
lwrist 13.8158
lhand -12.4661 6.51727
lfingers 7.12502
lthumb 13.6078 36.0525
rfemur -52.1066 -19.2052 -13.064
rtibia 89.3857
rfoot -27.4118 20.2622
rtoes -30.8843
lfemur -47.6067 10.668 6.80336
ltibia 72.4894
lfoot -19.1325 -14.2845
ltoes -45.0299
1045
root -1.86808 13.481 -6.7114 12.1991 -5.4717 8.29281
lowerback 22.3487 -0.356125 -1.33952
upperback 6.42502 -0.542077 3.14083
thorax -5.39086 -0.274735 4.31116
lowerneck -19.7162 -4.67767 -6.65037
upperneck 5.73693 -4.78784 1.7415
head 5.06022 -2.39523 1.1267
rclavicle -1.19271e-014 -2.54444e-014
rhumerus -3.38025 11.2703 -81.8377
rradius 126.544
rwrist 2.83921
rhand -21.4119 26.7586
rfingers 7.12502
rthumb 4.97663 -3.16296
lclavicle -1.19271e-014 -2.54444e-014
lhumerus -5.06619 14.7578 85.8395
lradius 128.756
lwrist 13.7759
lhand -12.7695 6.3076
lfingers 7.12502
lthumb 13.3154 35.8622
rfemur -51.507 -18.3966 -13.0389
rtibia 88.401
rfoot -26.6802 20.8651
rtoes -28.0288
lfemur -45.833 9.99596 6.66115
ltibia 70.6378
lfoot -17.4336 -14.1954
ltoes -44.9826
